<?xml version="1.0" encoding="utf-8"?>
<!-- Generator: Adobe Illustrator 26.5.0, SVG Export Plug-In . SVG Version: 6.00 Build 0)  -->
<svg version="1.1" id="Layer_2_00000178887799348611108230000018153178782459217840_"
	 xmlns="http://www.w3.org/2000/svg" xmlns:xlink="http://www.w3.org/1999/xlink" x="0px" y="0px" viewBox="0 0 263.4 263.4"
	 style="enable-background:new 0 0 263.4 263.4;" xml:space="preserve">
<style type="text/css">
	.st0{fill:#1D1D1B;stroke:#1D1D1B;stroke-width:6;stroke-miterlimit:10;}
</style>
<g id="_ëîé_1">
	<g>
		<path class="st0" d="M82.6,255.1c-1.8,0-3.5-0.8-4.6-2.3l-25.7-33.7l-39.5-15.4c-1.8-0.7-3.1-2.2-3.5-4.1
			c-0.4-1.9,0.1-3.9,1.4-5.2l41.5-43.9c1-1,2.6-1.1,3.6-0.1c1,1,1.1,2.6,0.1,3.6l-41.5,43.9c-0.2,0.2-0.2,0.5-0.2,0.6
			c0,0.1,0.1,0.4,0.4,0.5l40.2,15.7c0.4,0.2,0.8,0.5,1.1,0.8L82,249.7c0.2,0.3,0.4,0.3,0.6,0.3c0.2,0,0.4-0.1,0.6-0.4l19.8-33.4
			c0.7-1.2,2.3-1.6,3.5-0.9c1.2,0.7,1.6,2.3,0.9,3.5l-19.8,33.4c-1,1.7-2.7,2.7-4.7,2.8C82.8,255.1,82.7,255.1,82.6,255.1
			L82.6,255.1z"/>
		<path class="st0" d="M194.5,260.4L194.5,260.4c-1.1,0-2-0.7-2.4-1.7l-20.9-59.4c-0.5-1.3,0.2-2.8,1.6-3.2s2.8,0.2,3.2,1.6
			l18.5,52.6l10.4-29.1c0.5-1.3,1.8-2,3.1-1.6l29.5,9.1l-27.4-40.8c-0.8-1.2-0.5-2.8,0.7-3.5s2.8-0.5,3.5,0.7l31.5,46.8
			c0.6,0.9,0.6,2.1-0.1,2.9c-0.6,0.9-1.8,1.2-2.8,0.9l-34.1-10.5l-12,33.6C196.6,259.7,195.6,260.4,194.5,260.4L194.5,260.4z"/>
		<g>
			<path class="st0" d="M166.1,203.3c-2.1,0-4.3-0.4-6.4-1.4l-20.9-9.2l-20.9,9.2c-7.4,3.3-16.2,0.4-20.3-6.6l-11.5-19.7l-22.3-4.9
				c-7.9-1.7-13.3-9.1-12.5-17.2l2.2-22.7l-15.2-17.1c-5.4-6.1-5.4-15.2,0-21.3l15.2-17.1l-2.2-22.7c-0.8-8.1,4.6-15.5,12.5-17.2
				l22.3-4.9L97.7,11c4.1-7,12.8-9.8,20.3-6.6l20.9,9.2l20.9-9.2c7.4-3.3,16.1-0.4,20.3,6.6l11.5,19.7l22.3,4.9
				c7.9,1.7,13.3,9.1,12.5,17.2l-2.2,22.7l15.2,17.1c5.4,6.1,5.4,15.2,0,21.3l-15.2,17.1l2.2,22.7c0.8,8.1-4.6,15.5-12.5,17.2
				l-22.3,4.9L180,195.4C177,200.4,171.7,203.3,166.1,203.3L166.1,203.3z M138.8,187.4c0.4,0,0.7,0.1,1,0.2l21.9,9.6
				c5.1,2.2,11,0.3,13.8-4.5l12.1-20.7c0.4-0.6,1-1.1,1.7-1.2l23.4-5.1c5.4-1.2,9.1-6.2,8.5-11.7l-2.4-23.8
				c-0.1-0.7,0.2-1.4,0.6-1.9l15.9-17.9c3.7-4.1,3.7-10.4,0-14.5L219.5,78c-0.5-0.5-0.7-1.2-0.6-1.9l2.4-23.8
				c0.6-5.5-3.1-10.6-8.5-11.7l-23.4-5.1c-0.7-0.2-1.3-0.6-1.7-1.2l-12.1-20.7c-2.8-4.8-8.7-6.7-13.8-4.5l-21.9,9.6
				c-0.6,0.3-1.4,0.3-2.1,0L115.9,9c-5.1-2.2-11-0.3-13.8,4.5L90,34.2c-0.4,0.6-1,1-1.7,1.2l-23.4,5.1c-5.4,1.2-9.1,6.2-8.5,11.7
				L58.7,76c0.1,0.7-0.2,1.4-0.6,1.9L42.2,95.9c-3.7,4.1-3.7,10.4,0,14.5l15.9,17.9c0.5,0.5,0.7,1.2,0.6,1.9l-2.4,23.8
				c-0.5,5.5,3.1,10.6,8.5,11.7l23.4,5.1c0.7,0.1,1.3,0.6,1.7,1.2l12.1,20.7c2.8,4.8,8.7,6.7,13.8,4.5l21.9-9.6
				C138.1,187.5,138.5,187.4,138.8,187.4L138.8,187.4z"/>
			<path class="st0" d="M138.8,162.8c-32.9,0-59.6-26.8-59.6-59.6s26.8-59.6,59.6-59.6s59.6,26.8,59.6,59.6S171.7,162.8,138.8,162.8
				z M138.8,48.6c-30.1,0-54.5,24.5-54.5,54.5s24.5,54.5,54.5,54.5s54.5-24.5,54.5-54.5S168.9,48.6,138.8,48.6z"/>
			<path class="st0" d="M117.2,141c-0.5,0-0.9-0.1-1.3-0.4c-13.2-8.1-21-22.1-21-37.5c0-1.4,1.1-2.6,2.6-2.6s2.6,1.1,2.6,2.6
				c0,13.6,6.9,26,18.6,33.2c1.2,0.7,1.6,2.3,0.8,3.5C118.9,140.6,118.1,141,117.2,141L117.2,141z"/>
		</g>
	</g>
</g>
</svg>
