<?xml version="1.0" encoding="utf-8"?>
<!-- Generator: Adobe Illustrator 26.5.0, SVG Export Plug-In . SVG Version: 6.00 Build 0)  -->
<svg version="1.1" id="Layer_2_00000053547646644370685170000009999325016642598036_"
	 xmlns="http://www.w3.org/2000/svg" xmlns:xlink="http://www.w3.org/1999/xlink" x="0px" y="0px" viewBox="0 0 221.1 221.1"
	 style="enable-background:new 0 0 221.1 221.1;" xml:space="preserve">
<style type="text/css">
	.st0{fill:#1D1D1B;stroke:#1D1D1B;stroke-width:6;stroke-miterlimit:10;}
</style>
<g id="_ëîé_1">
	<g>
		<g>
			<path class="st0" d="M176.8,198.4c-0.7,0-1.3-0.3-1.8-0.8l-23.5-23.5h-24.7c-1.4,0-2.6-1.1-2.6-2.6s1.1-2.6,2.6-2.6h25.7
				c0.7,0,1.3,0.3,1.8,0.8l19.9,19.9v-18.1c0-1.4,1.1-2.6,2.6-2.6h18.3c9.8,0,17.9-8,17.9-17.9V27.3c0-9.8-8-17.9-17.9-17.9H26
				c-9.8,0-17.9,8-17.9,17.9v123.9c0,5.5,2.5,10.6,6.8,14c1.1,0.9,1.3,2.5,0.4,3.6c-0.9,1.1-2.5,1.3-3.6,0.4c-5.6-4.4-8.8-11-8.8-18
				V27.3c0-12.7,10.3-23,23-23h169.2c12.6,0,22.9,10.3,22.9,23v123.9c0,12.6-10.3,22.9-22.9,22.9h-15.7v21.7c0,1-0.6,2-1.6,2.4
				C177.5,198.4,177.2,198.4,176.8,198.4L176.8,198.4z"/>
			<path class="st0" d="M135.7,135.6c-1.2,0-2.4-0.3-3.5-0.9l-22.7-11.9c-0.3-0.1-0.6-0.3-0.8-0.6c-1-1-1-2.6,0-3.6l0,0
				c0.8-0.8,2-1,3-0.4l22.9,12c0.9,0.4,1.8,0.4,2.6-0.2s1.1-1.5,1-2.4l-4.4-25.4c-0.1-0.8,0.1-1.7,0.7-2.3l18.5-18
				c0.7-0.7,0.9-1.6,0.6-2.5c-0.3-0.9-1.1-1.6-2-1.7L126.1,74c-0.8-0.1-1.6-0.6-1.9-1.4l-11.4-23.2c-0.4-0.9-1.3-1.4-2.2-1.4
				s-1.8,0.5-2.2,1.4L96.9,72.6c-0.4,0.8-1.1,1.3-1.9,1.4l-25.6,3.7c-1,0.1-1.7,0.8-2,1.7s-0.1,1.9,0.6,2.5l0.7,0.7c1,1,1,2.6,0,3.6
				c-1,1-2.6,1-3.6,0l-0.7-0.7c-2.1-2-2.8-5-1.9-7.8c0.9-2.8,3.2-4.7,6.1-5.2l24.2-3.5l10.8-22c1.3-2.6,3.9-4.2,6.8-4.2
				s5.5,1.6,6.8,4.2l10.8,22l24.2,3.5c2.9,0.4,5.2,2.4,6.1,5.2c0.9,2.8,0.2,5.7-1.9,7.8l-17.5,17.1l4.1,24.1c0.5,2.9-0.7,5.7-3,7.4
				C138.9,135.2,137.3,135.6,135.7,135.6L135.7,135.6z"/>
		</g>
		<g>
			<path class="st0" d="M123.5,216.7c-1.4,0-2.6-1.1-2.6-2.6v-6.8c0-18.8-15.3-34.1-34.1-34.1H49c-18.8,0-34.1,15.3-34.1,34.1v6.8
				c0,1.4-1.1,2.6-2.6,2.6s-2.6-1.1-2.6-2.6v-6.8c0-21.6,17.6-39.2,39.2-39.2h37.8c21.6,0,39.2,17.6,39.2,39.2v6.8
				C126,215.5,124.9,216.7,123.5,216.7L123.5,216.7z"/>
			<path class="st0" d="M67.9,156.3c-15.8,0-28.7-12.9-28.7-28.7s12.9-28.7,28.7-28.7s28.7,12.9,28.7,28.7S83.8,156.3,67.9,156.3z
				 M67.9,103.9c-13,0-23.6,10.6-23.6,23.6s10.6,23.6,23.6,23.6s23.6-10.6,23.6-23.6S80.9,103.9,67.9,103.9z"/>
		</g>
	</g>
</g>
</svg>
