<?xml version="1.0" encoding="UTF-8"?><svg id="Layer_2" xmlns="http://www.w3.org/2000/svg" viewBox="0 0 262.58 262.58"><defs><style>.cls-1{fill:#1d1d1b;stroke:#1d1d1b;stroke-miterlimit:10;stroke-width:6px;}</style></defs><g id="_ëîé_1"><g><g><g><path class="cls-1" d="M24.8,115.39c-.14,0-.29-.01-.44-.04-1.39-.24-2.32-1.56-2.08-2.95C30.2,66.42,66.42,30.2,112.41,22.29c1.39-.24,2.71,.69,2.95,2.08,.24,1.39-.69,2.71-2.08,2.95-43.87,7.55-78.41,42.1-85.96,85.96-.21,1.24-1.29,2.12-2.51,2.12Z"/><path class="cls-1" d="M149.74,240.34c-1.22,0-2.3-.88-2.51-2.12-.24-1.39,.69-2.71,2.08-2.95,43.87-7.55,78.41-42.1,85.96-85.96,.24-1.39,1.56-2.32,2.95-2.08,1.39,.24,2.32,1.56,2.08,2.95-7.92,45.99-44.13,82.21-90.12,90.12-.15,.02-.29,.04-.44,.04Z"/><path class="cls-1" d="M112.85,240.34c-.14,0-.29-.01-.44-.04-45.99-7.92-82.21-44.13-90.12-90.12-.24-1.39,.69-2.71,2.08-2.95,1.39-.24,2.71,.69,2.95,2.08,7.55,43.87,42.1,78.41,85.96,85.96,1.39,.24,2.32,1.56,2.08,2.95-.21,1.24-1.29,2.12-2.51,2.12Z"/><path class="cls-1" d="M237.79,115.39c-1.22,0-2.3-.88-2.51-2.12-7.55-43.87-42.1-78.41-85.96-85.96-1.39-.24-2.32-1.56-2.08-2.95,.24-1.39,1.56-2.31,2.95-2.08,45.99,7.92,82.21,44.14,90.12,90.12,.24,1.39-.69,2.71-2.08,2.95-.15,.02-.29,.04-.44,.04Z"/></g><g><path class="cls-1" d="M131.29,37.01c-1.41,0-2.55-1.14-2.55-2.55V5.55c0-1.41,1.14-2.55,2.55-2.55s2.55,1.14,2.55,2.55v28.9c0,1.41-1.14,2.55-2.55,2.55Z"/><path class="cls-1" d="M131.29,259.58c-1.41,0-2.55-1.14-2.55-2.55v-28.9c0-1.41,1.14-2.55,2.55-2.55s2.55,1.14,2.55,2.55v28.9c0,1.41-1.14,2.55-2.55,2.55Z"/><path class="cls-1" d="M34.46,133.84H5.55c-1.41,0-2.55-1.14-2.55-2.55s1.14-2.55,2.55-2.55h28.91c1.41,0,2.55,1.14,2.55,2.55s-1.14,2.55-2.55,2.55Z"/><path class="cls-1" d="M257.03,133.84h-28.91c-1.41,0-2.55-1.14-2.55-2.55s1.14-2.55,2.55-2.55h28.91c1.41,0,2.55,1.14,2.55,2.55s-1.14,2.55-2.55,2.55Z"/></g></g><path class="cls-1" d="M115.15,184.79c-4.01,0-7.78-1.56-10.61-4.4l-36.86-36.86c-5.85-5.85-5.85-15.37,0-21.22l7.83-7.83c2.83-2.83,6.6-4.4,10.61-4.4s7.78,1.56,10.61,4.4l18.42,18.42,50.71-50.71c5.85-5.85,15.37-5.85,21.22,0l7.83,7.83c2.83,2.83,4.39,6.6,4.39,10.61s-1.56,7.77-4.39,10.61l-69.14,69.15c-2.83,2.83-6.6,4.4-10.61,4.4Zm-29.03-69.59c-2.65,0-5.13,1.03-7,2.9l-7.83,7.83c-3.86,3.86-3.86,10.15,0,14.01l36.86,36.86c1.87,1.87,4.36,2.9,7,2.9s5.13-1.03,7-2.9l69.14-69.15c1.87-1.87,2.9-4.36,2.9-7s-1.03-5.13-2.9-7l-7.83-7.83c-3.86-3.86-10.15-3.86-14.01,0l-52.51,52.51c-1,1-2.61,1-3.61,0l-20.22-20.22c-1.87-1.87-4.36-2.9-7-2.9Z"/></g></g></svg>