<?xml version="1.0" encoding="utf-8"?>
<!-- Generator: Adobe Illustrator 26.5.0, SVG Export Plug-In . SVG Version: 6.00 Build 0)  -->
<svg version="1.1" id="Layer_1" xmlns="http://www.w3.org/2000/svg" xmlns:xlink="http://www.w3.org/1999/xlink" x="0px" y="0px"
	 viewBox="0 0 267 267" style="enable-background:new 0 0 267 267;" xml:space="preserve">
<style type="text/css">
	.st0{fill:url(#SVGID_1_);}
	.st1{fill:url(#SVGID_00000134940221155467101210000001096381387813081500_);}
</style>
<g>
	
		<linearGradient id="SVGID_1_" gradientUnits="userSpaceOnUse" x1="-820.9857" y1="671.7057" x2="-820.3189" y2="671.0441" gradientTransform="matrix(189.3834 0 0 -189.8058 155510.6562 127523.1484)">
		<stop  offset="0" style="stop-color:#387EB8"/>
		<stop  offset="1" style="stop-color:#366994"/>
	</linearGradient>
	<path class="st0" d="M132.4,6.1c-64.8,0-60.8,28.1-60.8,28.1l0.1,29.1h61.9v8.7H47.1c0,0-41.5-4.7-41.5,60.7
		c0,65.4,36.2,63.1,36.2,63.1h21.6v-30.4c0,0-1.2-36.2,35.6-36.2h61.4c0,0,34.5,0.6,34.5-33.3V40C194.9,40,200.2,6.1,132.4,6.1
		L132.4,6.1L132.4,6.1z M98.3,25.7c6.2,0,11.1,5,11.1,11.1s-5,11.1-11.1,11.1c-6.2,0-11.1-5-11.1-11.1
		C87.2,30.6,92.1,25.7,98.3,25.7L98.3,25.7L98.3,25.7z"/>
	
		<linearGradient id="SVGID_00000074437313568550669330000016010675954843695253_" gradientUnits="userSpaceOnUse" x1="-820.924" y1="671.6202" x2="-820.2079" y2="670.9417" gradientTransform="matrix(189.3834 0 0 -189.8058 155576.6562 127587.4297)">
		<stop  offset="0" style="stop-color:#FFE052"/>
		<stop  offset="1" style="stop-color:#FFC331"/>
	</linearGradient>
	<path style="fill:url(#SVGID_00000074437313568550669330000016010675954843695253_);" d="M134.3,260.1c64.8,0,60.8-28.1,60.8-28.1
		l-0.1-29.1h-61.9v-8.7h86.4c0,0,41.5,4.7,41.5-60.7c0-65.4-36.2-63.1-36.2-63.1h-21.6v30.4c0,0,1.2,36.2-35.6,36.2h-61.4
		c0,0-34.5-0.6-34.5,33.3v56C71.7,226.2,66.5,260.1,134.3,260.1L134.3,260.1L134.3,260.1z M168.4,240.5c-6.2,0-11.1-5-11.1-11.1
		c0-6.2,5-11.1,11.1-11.1c6.2,0,11.1,5,11.1,11.1C179.5,235.6,174.5,240.5,168.4,240.5L168.4,240.5L168.4,240.5z"/>
</g>
</svg>
