<svg xmlns="http://www.w3.org/2000/svg" version="1.1" xmlns:xlink="http://www.w3.org/1999/xlink" xmlns:svgjs="http://svgjs.dev/svgjs" width="1000" height="1000" viewBox="0 0 1000 1000"><rect width="1000" height="1000" fill="#000000"></rect><g transform="translate(-232, 80) scale(4)"><svg viewBox="0 0 396 84" data-background-color="#ffffff" preserveAspectRatio="xMidYMid meet" height="212" width="1000" xmlns="http://www.w3.org/2000/svg" xmlns:xlink="http://www.w3.org/1999/xlink"><g id="tight-bounds" transform="matrix(1,0,0,1,0.23999624044529355,-0.09141402985704872)"><svg viewBox="0 0 395.52 84.18282805971407" height="84.18282805971407" width="395.52"><g><svg viewBox="0 0 662.9695916102089 141.1070366589327" height="84.18282805971407" width="395.52"><g transform="matrix(1,0,0,1,267.4495916102088,51.0528222737819)"><svg viewBox="0 0 395.52000000000004 39.00139211136891" height="39.00139211136891" width="395.52000000000004"><g><svg viewBox="0 0 395.52000000000004 39.00139211136891" height="39.00139211136891" width="395.52000000000004"><g><svg viewBox="0 0 395.52000000000004 39.00139211136891" height="39.00139211136891" width="395.52000000000004"><g transform="matrix(1,0,0,1,0,0)"><svg width="395.52000000000004" viewBox="0.75 -33.400001525878906 344.7699890136719 34" height="39.00139211136891" data-palette-color="#5e1914"></svg></g></svg></g></svg></g></svg></g><g><svg viewBox="0 0 244.43136 141.1070366589327" height="141.1070366589327" width="244.43136"><g><svg viewBox="0 0 244.43136 141.1070366589327" height="141.1070366589327" width="244.43136"><g transform="matrix(1,0,0,1,88.95643250177665,37.294270831243)"><svg viewBox="0 0 66.51849499644672 66.51849499644672" height="66.51849499644672" width="66.51849499644672"><g><svg xmlns="http://www.w3.org/2000/svg" xmlns:xlink="http://www.w3.org/1999/xlink" version="1.1" x="0" y="0" viewBox="0 0 60 60" enable-background="new 0 0 60 60" xml:space="preserve" height="66.51849499644672" width="66.51849499644672" class="icon-a-0" data-fill-palette-color="accent" id="a-0"><path fill="#ffffff" d="M59 7c0.55 0 1-0.45 1-1V1c0-0.55-0.45-1-1-1H37c-0.55 0-1 0.45-1 1v21h-2V1c0-0.55-0.45-1-1-1h-6c-0.55 0-1 0.45-1 1v21h-2V1c0-0.55-0.45-1-1-1H1C0.45 0 0 0.45 0 1v5c0 0.55 0.45 1 1 1h15v2H1c-0.55 0-1 0.45-1 1v5c0 0.55 0.45 1 1 1h15v6H1c-0.55 0-1 0.45-1 1v15c0 0.55 0.45 1 1 1h15v5H1c-0.55 0-1 0.45-1 1v5c0 0.55 0.45 1 1 1h15v2H1c-0.55 0-1 0.45-1 1v5c0 0.55 0.45 1 1 1h22c0.55 0 1-0.45 1-1V39h2v20c0 0.55 0.45 1 1 1h6c0.55 0 1-0.45 1-1V39h2v20c0 0.55 0.45 1 1 1h22c0.55 0 1-0.45 1-1v-5c0-0.55-0.45-1-1-1H44v-2h15c0.55 0 1-0.45 1-1v-5c0-0.55-0.45-1-1-1H44v-5h15c0.55 0 1-0.45 1-1V23c0-0.55-0.45-1-1-1H44v-6h15c0.55 0 1-0.45 1-1v-5c0-0.55-0.45-1-1-1H44V7H59zM43 24h5v13h-5-3v-4-5-4H43zM33 37h-6-4-1v-3h16v3h-1H33zM17 37h-5V24h5 3v4 5 4H17zM38 32H22v-3h16V32zM38 27H22v-3h1 4 6 4 1V27zM28 2h4v20h-4V2zM17 14H2v-3h15c0.55 0 1-0.45 1-1V6c0-0.55-0.45-1-1-1H2V2h20v20h-1-3v-7C18 14.45 17.55 14 17 14zM2 24h8v13H2V24zM22 58H2v-3h15c0.55 0 1-0.45 1-1v-4c0-0.55-0.45-1-1-1H2v-3h15c0.55 0 1-0.45 1-1v-6h3 1V58zM32 58h-4V39h4V58zM43 46h15v3H43c-0.55 0-1 0.45-1 1v4c0 0.55 0.45 1 1 1h15v3H38V39h1 3v6C42 45.55 42.45 46 43 46zM58 37h-8V24h8V37zM43 11h15v3H43c-0.55 0-1 0.45-1 1v7h-3-1V2h20v3H43c-0.55 0-1 0.45-1 1v4C42 10.55 42.45 11 43 11z" data-fill-palette-color="accent"></path></svg></g></svg></g><path d="M64.081 54.661L63.603 56.09 59.123 51.139 52.986 52.307 53.486 50.811 56.709 50.269C57.008 50.214 57.296 50.163 57.571 50.115 57.847 50.067 58.169 50.017 58.537 49.964V49.964L58.559 49.898C58.295 49.641 58.064 49.417 57.869 49.225 57.675 49.027 57.474 48.823 57.263 48.612V48.612L55.003 46.277 55.481 44.848 59.74 49.514 66.234 48.224 65.734 49.719 62.321 50.325C62.016 50.377 61.701 50.43 61.374 50.482 61.048 50.534 60.695 50.595 60.314 50.664V50.664L60.291 50.73C60.563 50.989 60.814 51.235 61.045 51.466 61.274 51.704 61.497 51.93 61.714 52.142V52.142ZM64.099 38.682V38.682L65.318 40.014 67.035 37.099 65.279 36.678C64.635 36.538 63.997 36.39 63.363 36.233 62.733 36.071 62.09 35.904 61.433 35.734V35.734L61.398 35.794C61.872 36.274 62.333 36.75 62.781 37.222 63.225 37.7 63.665 38.187 64.099 38.682ZM68.532 43.586L67.792 44.842 60.017 35.838 60.837 34.445 72.483 36.878 71.708 38.194 68.207 37.371 66.125 40.906ZM77.921 30.397L76.803 31.633 66.028 26.749 67.052 25.616 72.772 28.352C73.414 28.654 73.999 28.941 74.526 29.211 75.053 29.481 75.637 29.758 76.278 30.041V30.041L76.325 29.989C75.97 29.39 75.633 28.839 75.316 28.337 74.998 27.835 74.653 27.285 74.279 26.686V26.686L70.981 21.27 71.958 20.189ZM85.318 23.429L84.218 24.339 77.038 15.653 78.139 14.743ZM96.623 16.505L90.821 19.791 85.268 9.985 90.914 6.788 91.509 7.839 87.105 10.332 88.846 13.407 92.564 11.302 93.164 12.362 89.446 14.467 91.463 18.028 96.023 15.446ZM103.364 14.083L102.001 14.507 98.657 3.745 102.022 2.7C102.568 2.53 103.089 2.424 103.585 2.381 104.082 2.345 104.534 2.396 104.939 2.535 105.351 2.672 105.708 2.902 106.011 3.226 106.314 3.55 106.552 3.992 106.726 4.551V4.551C106.986 5.39 106.979 6.127 106.703 6.764 106.422 7.408 105.939 7.938 105.253 8.354V8.354L109.446 12.193 107.901 12.673 103.896 8.932 101.951 9.536ZM100.361 4.418L101.605 8.421 103.406 7.861C104.245 7.601 104.837 7.229 105.181 6.745 105.526 6.262 105.589 5.671 105.372 4.972V4.972C105.151 4.26 104.77 3.831 104.23 3.685 103.69 3.54 103.001 3.597 102.162 3.858V3.858ZM116.074 5.096V5.096L115.675 6.858 119.05 6.605 118.393 4.922C118.141 4.314 117.898 3.705 117.666 3.095 117.44 2.485 117.209 1.861 116.975 1.225V1.225L116.905 1.23C116.781 1.893 116.653 2.544 116.521 3.181 116.382 3.818 116.233 4.457 116.074 5.096ZM114.574 11.534L113.121 11.643 116.081 0.121 117.694 0 122.338 10.953 120.815 11.067 119.494 7.723 115.403 8.029ZM131.354 11.989V11.989C130.647 11.9 130.014 11.686 129.453 11.347 128.899 11.009 128.434 10.569 128.06 10.025 127.68 9.474 127.413 8.824 127.26 8.073 127.107 7.316 127.088 6.485 127.202 5.581V5.581C127.315 4.683 127.542 3.89 127.884 3.202 128.224 2.521 128.648 1.957 129.153 1.511 129.659 1.065 130.232 0.748 130.873 0.56 131.507 0.366 132.181 0.313 132.894 0.403V0.403C133.574 0.488 134.157 0.706 134.643 1.056 135.123 1.398 135.505 1.771 135.79 2.176V2.176L134.911 3.001C134.654 2.647 134.35 2.347 133.998 2.101 133.646 1.862 133.232 1.713 132.757 1.653V1.653C132.222 1.586 131.727 1.631 131.271 1.788 130.809 1.944 130.401 2.198 130.048 2.549 129.688 2.906 129.391 3.352 129.156 3.885 128.921 4.419 128.76 5.033 128.672 5.726V5.726C128.583 6.432 128.586 7.077 128.68 7.659 128.775 8.24 128.945 8.748 129.193 9.182 129.439 9.622 129.76 9.974 130.156 10.239 130.558 10.511 131.026 10.68 131.561 10.748V10.748C132.102 10.816 132.591 10.764 133.029 10.591 133.466 10.425 133.891 10.166 134.304 9.816V9.816L134.985 10.797C134.471 11.255 133.919 11.592 133.329 11.806 132.738 12.02 132.08 12.081 131.354 11.989ZM143.964 8.461V8.461L142.877 9.903 146.056 11.06 146.15 9.256C146.17 8.598 146.199 7.943 146.238 7.292 146.283 6.642 146.33 5.98 146.378 5.303V5.303L146.312 5.279C145.927 5.833 145.542 6.373 145.16 6.899 144.771 7.423 144.372 7.944 143.964 8.461ZM139.949 13.713L138.58 13.214 146.018 3.929 147.537 4.482 147.265 16.376 145.83 15.853 146.001 12.262 142.146 10.858ZM154.137 20.214L151.678 18.706 157.57 9.099 159.969 10.571C161.456 11.482 162.332 12.586 162.599 13.882 162.87 15.172 162.535 16.582 161.596 18.114V18.114C161.126 18.88 160.609 19.5 160.046 19.973 159.484 20.456 158.886 20.788 158.252 20.969 157.609 21.153 156.943 21.181 156.255 21.056 155.564 20.936 154.858 20.656 154.137 20.214ZM158.176 10.841L153.506 18.456 154.603 19.129C155.726 19.818 156.776 19.997 157.751 19.667 158.723 19.342 159.585 18.567 160.337 17.342V17.342C161.085 16.122 161.374 15.02 161.206 14.034 161.041 13.043 160.397 12.203 159.274 11.514V11.514ZM167.736 31.407L162.938 26.778 170.761 18.667 175.431 23.172 174.592 24.041 170.95 20.528 168.497 23.071 171.572 26.037 170.726 26.913 167.652 23.947 164.81 26.892 168.582 30.531ZM171.838 37.043L171.136 35.964 180.58 29.815 181.516 31.254 177.663 36.348C177.406 36.674 177.15 36.999 176.893 37.325 176.631 37.654 176.377 37.983 176.13 38.311V38.311L176.168 38.369C176.564 38.27 176.962 38.162 177.362 38.044 177.756 37.931 178.156 37.825 178.561 37.728V37.728L184.757 36.231 185.704 37.687 176.261 43.835 175.531 42.714 180.725 39.332C181.149 39.056 181.628 38.773 182.16 38.481 182.693 38.19 183.181 37.92 183.623 37.672V37.672L183.585 37.614 180.958 38.264 174.9 39.659 174.382 38.865 178.116 33.897 179.772 31.758 179.734 31.7C179.329 32.004 178.883 32.338 178.397 32.701 177.911 33.065 177.457 33.385 177.033 33.661V33.661ZM179.687 52.763L179.221 51.393 183.35 49.987 188.798 44.558 189.29 46.003 186.758 48.415C186.425 48.719 186.095 49.017 185.766 49.312 185.444 49.604 185.113 49.911 184.772 50.231V50.231L184.794 50.297C185.26 50.342 185.713 50.395 186.156 50.455 186.602 50.507 187.049 50.548 187.495 50.579V50.579L190.963 50.917 191.445 52.334 183.816 51.357ZM56.107 91.712L55.615 90.245 62.3 91.528 66.569 86.809 67.081 88.332 64.785 90.746C64.582 90.975 64.381 91.194 64.184 91.4 63.993 91.605 63.765 91.846 63.5 92.125V92.125L63.523 92.191C63.895 92.234 64.218 92.277 64.492 92.318 64.77 92.351 65.057 92.392 65.354 92.439V92.439L68.631 92.95 69.121 94.407 62.796 93.225 58.306 98.26 57.795 96.736 60.191 94.152C60.409 93.924 60.635 93.687 60.868 93.441 61.101 93.194 61.352 92.927 61.62 92.64V92.64L61.598 92.574C61.219 92.533 60.864 92.487 60.531 92.438 60.198 92.388 59.877 92.341 59.568 92.298V92.298ZM67.833 102.832V102.832L66.055 103.256 67.805 106.221 69.036 104.869C69.483 104.358 69.932 103.861 70.382 103.379 70.837 102.894 71.304 102.402 71.782 101.903V101.903L71.747 101.843C71.086 102.032 70.431 102.206 69.783 102.365 69.144 102.526 68.494 102.681 67.833 102.832ZM61.281 104.358L60.525 103.077 72.384 100.586 73.221 102.004 65.31 111.183 64.518 109.842 66.987 107.133 64.861 103.531ZM71.721 118.958L70.582 117.7 76.626 107.273 77.671 108.427 74.309 113.949C73.944 114.567 73.596 115.129 73.264 115.635 72.942 116.142 72.603 116.705 72.248 117.323V117.323L72.295 117.375C72.941 117.077 73.532 116.793 74.068 116.523 74.614 116.253 75.208 115.962 75.85 115.65V115.65L81.677 112.851 82.676 113.954ZM79.942 126.719L78.828 125.796 86.147 116.953 87.262 117.876ZM92.457 134.482L86.556 131.128 92.227 121.148 97.972 124.413 97.366 125.48 92.879 122.931 91.099 126.064 94.891 128.219 94.28 129.295 90.487 127.14 88.426 130.767 93.069 133.406ZM100.742 137.577L99.36 137.145 102.784 126.189 106.204 127.257C106.763 127.432 107.261 127.647 107.697 127.902 108.141 128.152 108.493 128.454 108.753 128.807 109.02 129.155 109.188 129.556 109.255 130.009 109.318 130.454 109.261 130.963 109.082 131.534V131.534C108.814 132.392 108.378 133.005 107.775 133.374 107.17 133.75 106.459 133.915 105.644 133.869V133.869L106.944 139.515 105.372 139.023 104.18 133.569 102.189 132.946ZM103.817 127.735L102.543 131.813 104.382 132.387C105.239 132.655 105.951 132.686 106.517 132.479 107.084 132.273 107.478 131.814 107.701 131.103V131.103C107.927 130.379 107.857 129.799 107.491 129.364 107.125 128.929 106.513 128.578 105.656 128.31V128.31ZM116.292 134.258V134.258L115.622 135.958 119.055 136.22 118.651 134.438C118.488 133.778 118.337 133.126 118.2 132.481 118.062 131.83 117.926 131.166 117.791 130.488V130.488L117.722 130.483C117.498 131.133 117.266 131.769 117.025 132.392 116.791 133.008 116.547 133.63 116.292 134.258ZM113.793 140.504L112.31 140.39 117.056 129.241 118.698 129.366 121.695 141.107 120.143 140.988 119.335 137.413 115.164 137.095ZM132.371 140.453V140.453C131.651 140.543 130.974 140.493 130.34 140.303 129.706 140.107 129.133 139.786 128.622 139.34 128.117 138.893 127.693 138.318 127.352 137.617 127.009 136.908 126.78 136.092 126.665 135.167V135.167C126.552 134.256 126.579 133.418 126.745 132.653 126.906 131.895 127.182 131.231 127.574 130.659 127.96 130.095 128.443 129.639 129.023 129.292 129.604 128.945 130.257 128.726 130.984 128.636V128.636C131.677 128.55 132.306 128.616 132.869 128.834 133.433 129.053 133.906 129.326 134.288 129.654V129.654L133.623 130.692C133.279 130.406 132.906 130.188 132.505 130.036 132.098 129.886 131.65 129.841 131.161 129.902V129.902C130.619 129.969 130.141 130.136 129.724 130.402 129.309 130.675 128.971 131.029 128.71 131.463 128.449 131.905 128.268 132.42 128.167 133.009 128.073 133.598 128.069 134.242 128.156 134.942V134.942C128.245 135.662 128.408 136.298 128.645 136.852 128.888 137.406 129.183 137.865 129.53 138.231 129.884 138.596 130.292 138.864 130.756 139.034 131.213 139.199 131.715 139.247 132.263 139.179V139.179C132.818 139.11 133.289 138.938 133.677 138.662 134.065 138.385 134.419 138.02 134.738 137.564V137.564L135.652 138.366C135.268 138.943 134.81 139.413 134.278 139.774 133.746 140.135 133.11 140.361 132.371 140.453ZM142.378 131.189V131.189L142.466 133.015 145.704 131.842 144.602 130.384C144.182 129.849 143.777 129.316 143.387 128.786 142.994 128.248 142.597 127.699 142.195 127.136V127.136L142.129 127.16C142.193 127.845 142.243 128.52 142.279 129.187 142.319 129.844 142.352 130.512 142.378 131.189ZM142.667 137.91L141.269 138.417 141.012 126.302 142.56 125.741 150.119 135.212 148.655 135.742 146.449 132.815 142.516 134.239ZM158.427 130.693L155.922 132.222 149.941 122.425 152.386 120.932C153.902 120.006 155.307 119.721 156.6 120.078 157.903 120.436 159.031 121.396 159.985 122.958V122.958C160.456 123.731 160.78 124.484 160.956 125.219 161.132 125.954 161.154 126.654 161.022 127.319 160.892 127.975 160.613 128.59 160.184 129.164 159.751 129.732 159.165 130.242 158.427 130.693ZM151.795 122.684L156.539 130.454 157.663 129.767C158.805 129.07 159.453 128.203 159.607 127.166 159.761 126.128 159.458 124.988 158.698 123.744V123.744C157.939 122.5 157.071 121.724 156.096 121.415 155.12 121.107 154.061 121.301 152.919 121.998V121.998ZM173.554 118.356L168.659 123.058 160.707 114.78 165.472 110.202 166.323 111.088 162.601 114.663 165.098 117.261 168.243 114.239 169.101 115.132 165.955 118.154 168.846 121.163 172.697 117.463ZM178.8 111.346L178.085 112.44 168.477 106.16 169.433 104.698 175.769 106.205C176.174 106.302 176.583 106.407 176.996 106.517 177.403 106.624 177.812 106.729 178.222 106.83V106.83L178.261 106.772C178.003 106.436 177.741 106.106 177.476 105.782 177.202 105.46 176.939 105.133 176.687 104.801V104.801L172.748 99.626 173.714 98.147 183.322 104.428 182.574 105.573 177.286 102.116C176.857 101.835 176.396 101.506 175.903 101.129 175.411 100.751 174.959 100.408 174.549 100.1V100.1L174.51 100.158 176.194 102.344 179.988 107.412 179.459 108.223 173.294 106.781 170.616 106.115 170.578 106.174C171.025 106.426 171.519 106.705 172.059 107.01 172.598 107.316 173.083 107.608 173.512 107.889V107.889ZM187.635 93.682L187.16 95.07 182.957 93.633 175.181 94.623 175.685 93.15 179.227 92.789C179.684 92.749 180.136 92.71 180.585 92.674 181.025 92.641 181.482 92.601 181.956 92.552V92.552L181.978 92.486C181.634 92.157 181.3 91.835 180.979 91.521 180.653 91.199 180.32 90.888 179.979 90.589V90.589L177.397 88.145 177.888 86.709 183.432 92.244ZM53.025 71.829C53.025 69.407 54.988 67.444 57.41 67.444 59.831 67.444 61.794 69.407 61.794 71.829 61.794 74.251 59.831 76.214 57.41 76.214 54.988 76.214 53.025 74.251 53.025 71.829ZM182.604 71.829C182.604 69.407 184.567 67.444 186.989 67.444 189.41 67.444 191.374 69.407 191.374 71.829 191.374 74.251 189.41 76.214 186.989 76.214 184.567 76.214 182.604 74.251 182.604 71.829Z" fill="#ffffff" data-fill-palette-color="accent"></path></svg></g></svg></g></svg></g><defs></defs></svg><rect width="395.52" height="84.18282805971407" fill="none" stroke="none" visibility="hidden"></rect></g></svg></g></svg>